<mxfile host="app.diagrams.net" agent="Mozilla/5.0 (X11; Linux x86_64) AppleWebKit/537.36 (KHTML, like Gecko) Chrome/128.0.0.0 Safari/537.36" version="24.7.16">
  <diagram name="Página-1" id="yMKjn8prSTbK0bKZyFBW">
    <mxGraphModel dx="2807" dy="1100" grid="1" gridSize="10" guides="1" tooltips="1" connect="1" arrows="1" fold="1" page="1" pageScale="1" pageWidth="827" pageHeight="1169" math="0" shadow="0">
      <root>
        <mxCell id="0" />
        <mxCell id="1" parent="0" />
        <mxCell id="sj-X650MK91T1oHZ56Pk-1" value="Usuário" style="shape=umlActor;verticalLabelPosition=bottom;verticalAlign=top;html=1;" parent="1" vertex="1">
          <mxGeometry x="69" y="562" width="40" height="80" as="geometry" />
        </mxCell>
        <mxCell id="sj-X650MK91T1oHZ56Pk-2" value="&lt;font style=&quot;font-size: 24px;&quot;&gt;Módulo - Rastreamento em Tempo Real&lt;/font&gt;" style="text;html=1;align=center;verticalAlign=middle;resizable=0;points=[];autosize=1;strokeColor=none;fillColor=none;" parent="1" vertex="1">
          <mxGeometry x="209" y="157" width="410" height="40" as="geometry" />
        </mxCell>
        <mxCell id="sj-X650MK91T1oHZ56Pk-4" value="&lt;b&gt;Visualizar mapa de rastreamento&lt;/b&gt;" style="ellipse;whiteSpace=wrap;html=1;" parent="1" vertex="1">
          <mxGeometry x="199" y="262" width="160" height="80" as="geometry" />
        </mxCell>
        <mxCell id="sj-X650MK91T1oHZ56Pk-9" value="&lt;b&gt;Visualizar Caminhão de Lixo em área específica&lt;/b&gt;" style="ellipse;whiteSpace=wrap;html=1;" parent="1" vertex="1">
          <mxGeometry x="199.5" y="472" width="159" height="75" as="geometry" />
        </mxCell>
        <mxCell id="sj-X650MK91T1oHZ56Pk-10" value="&lt;b&gt;Exibir Rotas de Coleta&lt;/b&gt;" style="ellipse;whiteSpace=wrap;html=1;" parent="1" vertex="1">
          <mxGeometry x="200.5" y="802" width="160" height="80" as="geometry" />
        </mxCell>
        <mxCell id="sj-X650MK91T1oHZ56Pk-11" value="&lt;span class=&quot;notion-enable-hover&quot; data-token-index=&quot;0&quot; style=&quot;font-weight:600&quot;&gt;Exibir Horários Estimados de Passagem&lt;/span&gt;" style="ellipse;whiteSpace=wrap;html=1;" parent="1" vertex="1">
          <mxGeometry x="198.5" y="582" width="160" height="80" as="geometry" />
        </mxCell>
        <mxCell id="sj-X650MK91T1oHZ56Pk-12" value="&lt;span class=&quot;notion-enable-hover&quot; data-token-index=&quot;0&quot; style=&quot;font-weight:600&quot;&gt;Notificar Proximidade de Caminhão&lt;/span&gt;" style="ellipse;whiteSpace=wrap;html=1;" parent="1" vertex="1">
          <mxGeometry x="198.5" y="912" width="160" height="80" as="geometry" />
        </mxCell>
        <mxCell id="sj-X650MK91T1oHZ56Pk-13" value="Motorista do caminhão de coleta&lt;div&gt;&lt;br&gt;&lt;/div&gt;" style="shape=umlActor;verticalLabelPosition=bottom;verticalAlign=top;html=1;" parent="1" vertex="1">
          <mxGeometry x="719" y="262" width="40" height="80" as="geometry" />
        </mxCell>
        <mxCell id="sj-X650MK91T1oHZ56Pk-21" value="&lt;b&gt;Enviar coordenadas de Localização em Tempo Real&lt;/b&gt;" style="ellipse;whiteSpace=wrap;html=1;" parent="1" vertex="1">
          <mxGeometry x="478" y="382" width="160" height="80" as="geometry" />
        </mxCell>
        <mxCell id="sj-X650MK91T1oHZ56Pk-23" value="&lt;b&gt;Capturar Coordenadas&lt;/b&gt;" style="ellipse;whiteSpace=wrap;html=1;" parent="1" vertex="1">
          <mxGeometry x="479" y="502" width="159" height="80" as="geometry" />
        </mxCell>
        <mxCell id="sj-X650MK91T1oHZ56Pk-24" value="&lt;div&gt;Api de Geolocalização &lt;br&gt;do&lt;br&gt;&amp;nbsp;HTML 5&lt;/div&gt;" style="shape=umlActor;verticalLabelPosition=bottom;verticalAlign=top;html=1;" parent="1" vertex="1">
          <mxGeometry x="719" y="502" width="40" height="80" as="geometry" />
        </mxCell>
        <mxCell id="sj-X650MK91T1oHZ56Pk-27" value="Package Tracking" style="shape=umlFrame;whiteSpace=wrap;html=1;pointerEvents=0;" parent="1" vertex="1">
          <mxGeometry x="159" y="222" width="520" height="790" as="geometry" />
        </mxCell>
        <mxCell id="sj-X650MK91T1oHZ56Pk-31" value="" style="endArrow=open;endFill=1;endSize=12;html=1;rounded=0;exitX=0.5;exitY=0.5;exitDx=0;exitDy=0;exitPerimeter=0;entryX=0;entryY=0.5;entryDx=0;entryDy=0;" parent="1" source="sj-X650MK91T1oHZ56Pk-1" target="sj-X650MK91T1oHZ56Pk-4" edge="1">
          <mxGeometry width="160" relative="1" as="geometry">
            <mxPoint x="239" y="542" as="sourcePoint" />
            <mxPoint x="399" y="542" as="targetPoint" />
          </mxGeometry>
        </mxCell>
        <mxCell id="sj-X650MK91T1oHZ56Pk-33" value="&lt;b&gt;Renderizar Mapa&lt;/b&gt;" style="ellipse;whiteSpace=wrap;html=1;" parent="1" vertex="1">
          <mxGeometry x="479" y="262" width="160" height="80" as="geometry" />
        </mxCell>
        <mxCell id="sj-X650MK91T1oHZ56Pk-34" value="" style="endArrow=open;endFill=1;endSize=12;html=1;rounded=0;exitX=0.5;exitY=0.5;exitDx=0;exitDy=0;exitPerimeter=0;entryX=1;entryY=0.5;entryDx=0;entryDy=0;" parent="1" source="sj-X650MK91T1oHZ56Pk-13" target="sj-X650MK91T1oHZ56Pk-21" edge="1">
          <mxGeometry width="160" relative="1" as="geometry">
            <mxPoint x="341" y="529.5" as="sourcePoint" />
            <mxPoint x="537" y="244.5" as="targetPoint" />
          </mxGeometry>
        </mxCell>
        <mxCell id="sj-X650MK91T1oHZ56Pk-35" value="&amp;lt;&amp;lt;include&amp;gt;&amp;gt;" style="html=1;verticalAlign=bottom;labelBackgroundColor=none;endArrow=open;endFill=0;dashed=1;rounded=0;exitX=0.5;exitY=1;exitDx=0;exitDy=0;entryX=0.5;entryY=0;entryDx=0;entryDy=0;" parent="1" source="sj-X650MK91T1oHZ56Pk-21" target="sj-X650MK91T1oHZ56Pk-23" edge="1">
          <mxGeometry width="160" relative="1" as="geometry">
            <mxPoint x="539" y="497" as="sourcePoint" />
            <mxPoint x="699" y="497" as="targetPoint" />
          </mxGeometry>
        </mxCell>
        <mxCell id="sj-X650MK91T1oHZ56Pk-37" value="" style="endArrow=open;endFill=1;endSize=12;html=1;rounded=0;entryX=1;entryY=0.5;entryDx=0;entryDy=0;exitX=0.5;exitY=0.5;exitDx=0;exitDy=0;exitPerimeter=0;" parent="1" source="sj-X650MK91T1oHZ56Pk-24" target="sj-X650MK91T1oHZ56Pk-23" edge="1">
          <mxGeometry width="160" relative="1" as="geometry">
            <mxPoint x="729" y="432" as="sourcePoint" />
            <mxPoint x="889" y="432" as="targetPoint" />
          </mxGeometry>
        </mxCell>
        <mxCell id="sj-X650MK91T1oHZ56Pk-38" value="&amp;lt;&amp;lt;include&amp;gt;&amp;gt;" style="html=1;verticalAlign=bottom;labelBackgroundColor=none;endArrow=open;endFill=0;dashed=1;rounded=0;exitX=1;exitY=0.5;exitDx=0;exitDy=0;entryX=0;entryY=0.5;entryDx=0;entryDy=0;" parent="1" source="sj-X650MK91T1oHZ56Pk-4" target="sj-X650MK91T1oHZ56Pk-33" edge="1">
          <mxGeometry width="160" relative="1" as="geometry">
            <mxPoint x="239" y="382" as="sourcePoint" />
            <mxPoint x="502" y="274" as="targetPoint" />
          </mxGeometry>
        </mxCell>
        <mxCell id="sj-X650MK91T1oHZ56Pk-39" value="&amp;lt;&amp;lt;include&amp;gt;&amp;gt;" style="html=1;verticalAlign=bottom;labelBackgroundColor=none;endArrow=open;endFill=0;dashed=1;rounded=0;entryX=0.5;entryY=0;entryDx=0;entryDy=0;exitX=0.5;exitY=1;exitDx=0;exitDy=0;" parent="1" source="sj-X650MK91T1oHZ56Pk-33" target="sj-X650MK91T1oHZ56Pk-21" edge="1">
          <mxGeometry x="-0.0025" width="160" relative="1" as="geometry">
            <mxPoint x="461.92640687119274" y="508.71572875253787" as="sourcePoint" />
            <mxPoint x="329" y="527" as="targetPoint" />
            <Array as="points">
              <mxPoint x="559" y="362" />
            </Array>
            <mxPoint as="offset" />
          </mxGeometry>
        </mxCell>
        <mxCell id="sj-X650MK91T1oHZ56Pk-41" value="&amp;lt;&amp;lt;Library&amp;gt;&amp;gt;&lt;br&gt;Leaflet.js" style="shape=folder;tabWidth=80;tabHeight=20;tabPosition=left;html=1;whiteSpace=wrap;align=center;" parent="1" vertex="1">
          <mxGeometry x="231.5" y="372" width="95" height="72" as="geometry" />
        </mxCell>
        <mxCell id="sj-X650MK91T1oHZ56Pk-43" value="" style="endArrow=none;html=1;rounded=0;exitX=0;exitY=0;exitDx=95;exitDy=20;exitPerimeter=0;entryX=0;entryY=0.5;entryDx=0;entryDy=0;" parent="1" source="sj-X650MK91T1oHZ56Pk-41" target="sj-X650MK91T1oHZ56Pk-33" edge="1">
          <mxGeometry relative="1" as="geometry">
            <mxPoint x="339" y="492" as="sourcePoint" />
            <mxPoint x="499" y="492" as="targetPoint" />
          </mxGeometry>
        </mxCell>
        <mxCell id="qWE-NdYd8yu8AbSXhFPb-1" value="" style="endArrow=open;endFill=1;endSize=12;html=1;rounded=0;exitX=0.5;exitY=0.5;exitDx=0;exitDy=0;exitPerimeter=0;entryX=0;entryY=0.5;entryDx=0;entryDy=0;" edge="1" parent="1" source="sj-X650MK91T1oHZ56Pk-1" target="sj-X650MK91T1oHZ56Pk-9">
          <mxGeometry width="160" relative="1" as="geometry">
            <mxPoint x="109" y="432" as="sourcePoint" />
            <mxPoint x="249" y="312" as="targetPoint" />
          </mxGeometry>
        </mxCell>
        <mxCell id="qWE-NdYd8yu8AbSXhFPb-3" value="&amp;lt;&amp;lt;include&amp;gt;&amp;gt;" style="html=1;verticalAlign=bottom;labelBackgroundColor=none;endArrow=open;endFill=0;dashed=1;rounded=0;exitX=0.797;exitY=0.099;exitDx=0;exitDy=0;entryX=0;entryY=1;entryDx=0;entryDy=0;exitPerimeter=0;" edge="1" parent="1" source="sj-X650MK91T1oHZ56Pk-9" target="sj-X650MK91T1oHZ56Pk-33">
          <mxGeometry width="160" relative="1" as="geometry">
            <mxPoint x="329" y="352" as="sourcePoint" />
            <mxPoint x="329" y="392" as="targetPoint" />
          </mxGeometry>
        </mxCell>
        <mxCell id="qWE-NdYd8yu8AbSXhFPb-4" value="&lt;b&gt;Ativar localização Atual&lt;/b&gt;" style="ellipse;whiteSpace=wrap;html=1;" vertex="1" parent="1">
          <mxGeometry x="198.5" y="692" width="160" height="80" as="geometry" />
        </mxCell>
        <mxCell id="qWE-NdYd8yu8AbSXhFPb-5" value="&amp;lt;&amp;lt;include&amp;gt;&amp;gt;" style="html=1;verticalAlign=bottom;labelBackgroundColor=none;endArrow=open;endFill=0;dashed=1;rounded=0;exitX=1;exitY=0.5;exitDx=0;exitDy=0;entryX=0.5;entryY=1;entryDx=0;entryDy=0;" edge="1" parent="1" source="sj-X650MK91T1oHZ56Pk-11" target="sj-X650MK91T1oHZ56Pk-21">
          <mxGeometry width="160" relative="1" as="geometry">
            <mxPoint x="569" y="352" as="sourcePoint" />
            <mxPoint x="570" y="512" as="targetPoint" />
          </mxGeometry>
        </mxCell>
        <mxCell id="qWE-NdYd8yu8AbSXhFPb-6" value="" style="endArrow=open;endFill=1;endSize=12;html=1;rounded=0;exitX=0.5;exitY=0.5;exitDx=0;exitDy=0;exitPerimeter=0;entryX=0;entryY=0.5;entryDx=0;entryDy=0;" edge="1" parent="1" source="sj-X650MK91T1oHZ56Pk-1" target="qWE-NdYd8yu8AbSXhFPb-4">
          <mxGeometry width="160" relative="1" as="geometry">
            <mxPoint x="99" y="612" as="sourcePoint" />
            <mxPoint x="211" y="550" as="targetPoint" />
          </mxGeometry>
        </mxCell>
        <mxCell id="qWE-NdYd8yu8AbSXhFPb-7" value="" style="endArrow=open;endFill=1;endSize=12;html=1;rounded=0;exitX=0.5;exitY=0.5;exitDx=0;exitDy=0;exitPerimeter=0;entryX=0;entryY=0.5;entryDx=0;entryDy=0;" edge="1" parent="1" source="sj-X650MK91T1oHZ56Pk-1" target="sj-X650MK91T1oHZ56Pk-11">
          <mxGeometry width="160" relative="1" as="geometry">
            <mxPoint x="99" y="612" as="sourcePoint" />
            <mxPoint x="211" y="550" as="targetPoint" />
          </mxGeometry>
        </mxCell>
        <mxCell id="qWE-NdYd8yu8AbSXhFPb-8" value="&amp;lt;&amp;lt;include&amp;gt;&amp;gt;" style="html=1;verticalAlign=bottom;labelBackgroundColor=none;endArrow=open;endFill=0;dashed=1;rounded=0;exitX=1;exitY=0.5;exitDx=0;exitDy=0;entryX=0.5;entryY=1;entryDx=0;entryDy=0;" edge="1" parent="1" source="qWE-NdYd8yu8AbSXhFPb-4" target="sj-X650MK91T1oHZ56Pk-23">
          <mxGeometry width="160" relative="1" as="geometry">
            <mxPoint x="480" y="612" as="sourcePoint" />
            <mxPoint x="481" y="772" as="targetPoint" />
            <Array as="points">
              <mxPoint x="559" y="732" />
            </Array>
          </mxGeometry>
        </mxCell>
        <mxCell id="qWE-NdYd8yu8AbSXhFPb-9" value="&amp;lt;&amp;lt;include&amp;gt;&amp;gt;" style="html=1;verticalAlign=bottom;labelBackgroundColor=none;endArrow=open;endFill=0;dashed=1;rounded=0;exitX=1;exitY=0.5;exitDx=0;exitDy=0;entryX=1;entryY=0.5;entryDx=0;entryDy=0;" edge="1" parent="1" source="sj-X650MK91T1oHZ56Pk-11" target="qWE-NdYd8yu8AbSXhFPb-4">
          <mxGeometry width="160" relative="1" as="geometry">
            <mxPoint x="369" y="752" as="sourcePoint" />
            <mxPoint x="570" y="592" as="targetPoint" />
          </mxGeometry>
        </mxCell>
        <mxCell id="qWE-NdYd8yu8AbSXhFPb-10" value="" style="endArrow=open;endFill=1;endSize=12;html=1;rounded=0;exitX=0.5;exitY=0.5;exitDx=0;exitDy=0;exitPerimeter=0;entryX=0;entryY=0.5;entryDx=0;entryDy=0;" edge="1" parent="1" source="sj-X650MK91T1oHZ56Pk-1" target="sj-X650MK91T1oHZ56Pk-10">
          <mxGeometry width="160" relative="1" as="geometry">
            <mxPoint x="89" y="702" as="sourcePoint" />
            <mxPoint x="199" y="842" as="targetPoint" />
          </mxGeometry>
        </mxCell>
        <mxCell id="qWE-NdYd8yu8AbSXhFPb-11" value="&amp;lt;&amp;lt;include&amp;gt;&amp;gt;" style="html=1;verticalAlign=bottom;labelBackgroundColor=none;endArrow=open;endFill=0;dashed=1;rounded=0;exitX=1;exitY=0.5;exitDx=0;exitDy=0;entryX=0;entryY=1;entryDx=0;entryDy=0;" edge="1" parent="1" source="sj-X650MK91T1oHZ56Pk-10" target="sj-X650MK91T1oHZ56Pk-33">
          <mxGeometry width="160" relative="1" as="geometry">
            <mxPoint x="347" y="523" as="sourcePoint" />
            <mxPoint x="512" y="340" as="targetPoint" />
            <Array as="points">
              <mxPoint x="419" y="842" />
              <mxPoint x="419" y="402" />
            </Array>
          </mxGeometry>
        </mxCell>
        <mxCell id="qWE-NdYd8yu8AbSXhFPb-12" value="&amp;lt;&amp;lt;include&amp;gt;&amp;gt;" style="html=1;verticalAlign=bottom;labelBackgroundColor=none;endArrow=open;endFill=0;dashed=1;rounded=0;fontSize=12;startSize=8;endSize=8;curved=1;exitX=1;exitY=0.5;exitDx=0;exitDy=0;entryX=1;entryY=0.5;entryDx=0;entryDy=0;" edge="1" parent="1" source="sj-X650MK91T1oHZ56Pk-12" target="qWE-NdYd8yu8AbSXhFPb-4">
          <mxGeometry width="160" relative="1" as="geometry">
            <mxPoint x="389" y="902" as="sourcePoint" />
            <mxPoint x="549" y="902" as="targetPoint" />
            <Array as="points">
              <mxPoint x="419" y="842" />
            </Array>
          </mxGeometry>
        </mxCell>
        <mxCell id="qWE-NdYd8yu8AbSXhFPb-13" value="" style="endArrow=open;endFill=1;endSize=12;html=1;rounded=0;exitX=0.5;exitY=0.5;exitDx=0;exitDy=0;exitPerimeter=0;entryX=0;entryY=0.5;entryDx=0;entryDy=0;" edge="1" parent="1" source="sj-X650MK91T1oHZ56Pk-1" target="sj-X650MK91T1oHZ56Pk-12">
          <mxGeometry width="160" relative="1" as="geometry">
            <mxPoint x="99" y="612" as="sourcePoint" />
            <mxPoint x="210" y="852" as="targetPoint" />
          </mxGeometry>
        </mxCell>
        <mxCell id="qWE-NdYd8yu8AbSXhFPb-14" value="&amp;lt;&amp;lt;include&amp;gt;&amp;gt;" style="html=1;verticalAlign=bottom;labelBackgroundColor=none;endArrow=open;endFill=0;dashed=1;rounded=0;exitX=1;exitY=0.5;exitDx=0;exitDy=0;entryX=0;entryY=0.5;entryDx=0;entryDy=0;" edge="1" parent="1" source="sj-X650MK91T1oHZ56Pk-12" target="sj-X650MK91T1oHZ56Pk-21">
          <mxGeometry width="160" relative="1" as="geometry">
            <mxPoint x="489" y="772" as="sourcePoint" />
            <mxPoint x="489" y="882" as="targetPoint" />
            <Array as="points">
              <mxPoint x="449" y="952" />
              <mxPoint x="449" y="422" />
            </Array>
          </mxGeometry>
        </mxCell>
      </root>
    </mxGraphModel>
  </diagram>
</mxfile>
